<svg width="27" height="27" viewBox="0 0 27 27" fill="none" xmlns="http://www.w3.org/2000/svg">
<path d="M9.62404 1.08438C10.9016 10.8903 4.65277 15.9129 5.94908 20.751C6.14262 21.4731 6.48803 22.1325 6.94613 22.7219C6.8105 22.3452 6.7324 21.9486 6.72359 21.5354C6.66806 18.9341 9.38636 16.6725 11.3296 13.032C11.9378 14.681 12.5846 16.655 12.2129 19.1639C15.5317 18.2005 18.053 15.6562 18.6036 12.9595C20.555 16.4517 20.8023 20.4193 18.6498 23.3365C18.6429 23.1724 18.6158 23.0097 18.5692 22.8521C18.2002 21.6148 16.4781 20.928 14.736 21.374C11.5117 22.1998 11.0652 26.5767 15.6127 25.8678C15.6359 25.8643 15.66 25.8603 15.6835 25.8564C16.9727 25.6601 18.1689 25.1794 19.1063 24.3765C26.9357 17.6714 20.4707 5.46186 9.62404 1.08438Z" fill="white"/>
</svg>
