<svg width="25" height="24" viewBox="0 0 25 24" fill="none" xmlns="http://www.w3.org/2000/svg">
<path d="M7.79061 18C8.65114 18 9.34873 18.6716 9.34873 19.5C9.34873 20.3284 8.65114 21 7.79061 21C6.93008 21 6.23248 20.3284 6.23248 19.5C6.23248 18.6716 6.93008 18 7.79061 18Z" stroke="white" stroke-width="1.5"/>
<path d="M17.1394 18.0001C17.9999 18.0001 18.6975 18.6716 18.6975 19.5001C18.6975 20.3285 17.9999 21.0001 17.1394 21.0001C16.2788 21.0001 15.5812 20.3285 15.5812 19.5001C15.5812 18.6716 16.2788 18.0001 17.1394 18.0001Z" stroke="white" stroke-width="1.5"/>
<path d="M9.8681 9L10.4168 12.1179" stroke="white" stroke-width="1.5" stroke-linecap="round"/>
<path d="M16.1301 9L15.5814 12.1179" stroke="white" stroke-width="1.5" stroke-linecap="round"/>
<path d="M2.07751 3L2.34885 3.09184C3.70088 3.54945 4.37689 3.77826 4.76356 4.32298C5.15022 4.86771 5.15022 5.59126 5.15022 7.03836V9.76C5.15022 12.7016 5.21591 13.6723 6.11588 14.5862C7.01586 15.5 8.46434 15.5 11.3613 15.5H12.465M16.8697 15.5C18.4912 15.5 19.302 15.5 19.8751 15.0504C20.4482 14.6008 20.6118 13.8364 20.9392 12.3075L21.4583 9.88275C21.8188 8.14369 21.9991 7.27417 21.538 6.69708C21.0768 6.12 19.5013 6.12 17.751 6.12H11.4506M5.15022 6.12H7.27126" stroke="white" stroke-width="1.5" stroke-linecap="round"/>
</svg>
