<svg width="21" height="22" viewBox="0 0 21 22" fill="none" xmlns="http://www.w3.org/2000/svg">
<path d="M9.52 18.5H6C5.38 18.5 4.83 18.48 4.34 18.41C1.71 18.12 1 16.88 1 13.5V8.5C1 5.12 1.71 3.88 4.34 3.59C4.83 3.52 5.38 3.5 6 3.5H9.46M13.52 3.5H15C15.62 3.5 16.17 3.52 16.66 3.59C19.29 3.88 20 5.12 20 8.5V13.5C20 16.88 19.29 18.12 16.66 18.41C16.17 18.48 15.62 18.5 15 18.5H13.52M13.5 1V21" stroke="black" stroke-width="1.5" stroke-linecap="round" stroke-linejoin="round"/>
<path d="M9.59524 11H9.60324M5.59424 11H5.60424" stroke="black" stroke-width="2" stroke-linecap="round" stroke-linejoin="round"/>
</svg>
