<svg width="19" height="22" viewBox="0 0 19 22" fill="none" xmlns="http://www.w3.org/2000/svg">
<path d="M9.62244 12.4299C10.0322 12.4299 10.4379 12.3492 10.8164 12.1924C11.1949 12.0357 11.5389 11.8058 11.8286 11.5161C12.1183 11.2264 12.3482 10.8824 12.5049 10.5039C12.6617 10.1254 12.7424 9.71967 12.7424 9.30994C12.7424 8.90022 12.6617 8.49451 12.5049 8.11597C12.3482 7.73743 12.1183 7.39349 11.8286 7.10377C11.5389 6.81405 11.1949 6.58423 10.8164 6.42744C10.4379 6.27064 10.0322 6.18994 9.62244 6.18994C8.79497 6.18994 8.00138 6.51865 7.41627 7.10377C6.83115 7.68888 6.50244 8.48247 6.50244 9.30994C6.50244 10.1374 6.83115 10.931 7.41627 11.5161C8.00138 12.1012 8.79497 12.4299 9.62244 12.4299Z" stroke="black" stroke-width="1.5"/>
<path d="M1.24276 7.49C3.21276 -1.17 16.0428 -1.16 18.0028 7.5C19.1528 12.58 15.9928 16.88 13.2228 19.54C12.2548 20.4735 10.9625 20.9952 9.61776 20.9952C8.273 20.9952 6.98068 20.4735 6.01276 19.54C3.25276 16.88 0.0927559 12.57 1.24276 7.49Z" stroke="black" stroke-width="1.5"/>
</svg>
