<svg width="24" height="24" viewBox="0 0 24 24" fill="none" xmlns="http://www.w3.org/2000/svg">
<path d="M5.48001 18.49V15.57C5.48001 14.6 6.24001 13.73 7.32001 13.73C8.29001 13.73 9.16001 14.49 9.16001 15.57V18.38C9.16001 20.33 7.54001 21.9501 5.59001 21.9501C3.64001 21.9501 2.02001 20.32 2.02001 18.38V12.22C1.91001 6.60005 6.35001 2.05005 11.97 2.05005C17.59 2.05005 22.02 6.60005 22.02 12.11V18.2701C22.02 20.2201 20.4 21.84 18.45 21.84C16.5 21.84 14.88 20.2201 14.88 18.2701V15.46C14.88 14.49 15.64 13.62 16.72 13.62C17.69 13.62 18.56 14.38 18.56 15.46V18.49" stroke="black" stroke-width="1.5" stroke-linecap="round" stroke-linejoin="round"/>
<path d="M15.53 9.12001H14.72C14.6112 9.1212 14.5046 9.15151 14.4114 9.20778C14.3182 9.26405 14.2418 9.34423 14.19 9.44001L13.44 10.94C13.33 11.16 13.02 11.16 12.91 10.94L11.07 7.27001C10.96 7.06001 10.66 7.05001 10.55 7.26001L9.71002 8.81001C9.61002 9.00001 9.41002 9.12001 9.19002 9.12001H8.46002" stroke="black" stroke-width="1.5" stroke-linecap="round" stroke-linejoin="round"/>
</svg>
