<svg width="25" height="24" viewBox="0 0 25 24" fill="none" xmlns="http://www.w3.org/2000/svg">
<path d="M9.46033 2.67414C10.371 2.24187 11.3897 2 12.465 2C16.3368 2 19.4756 5.13623 19.4756 9.00497V9.70957C19.4756 10.5552 19.7261 11.3818 20.1955 12.0854L21.3459 13.8095C22.3966 15.3843 21.5945 17.5249 19.767 18.0229C14.9863 19.3257 9.94365 19.3257 5.16292 18.0229C3.33544 17.5249 2.53329 15.3843 3.58402 13.8095L4.73437 12.0854C5.2038 11.3818 5.4543 10.5552 5.4543 9.70957V9.00497C5.4543 7.93058 5.69637 6.91269 6.12899 6.00277" stroke="#F90716" stroke-width="1.5" stroke-linecap="round"/>
<path d="M7.79065 19C8.47106 20.7478 10.307 22 12.465 22C12.719 22 12.9685 21.9827 13.2121 21.9492M17.1394 19C16.862 19.7126 16.3925 20.3428 15.7874 20.8393" stroke="#F90716" stroke-width="1.5" stroke-linecap="round"/>
</svg>
