<svg width="15" height="15" viewBox="0 0 15 15" fill="none" xmlns="http://www.w3.org/2000/svg">
<path d="M4.74012 11.6075L7.49963 9.943L10.2591 11.6294L9.53641 8.47564L11.9674 6.37316L8.76988 6.08844L7.49963 3.10992L6.22938 6.06654L3.03185 6.35125L5.46285 8.47564L4.74012 11.6075ZM7.49963 12.0017L3.86408 14.1918C3.70347 14.294 3.53557 14.3378 3.36036 14.3232C3.18515 14.3086 3.03185 14.2502 2.90044 14.148C2.76904 14.0458 2.66683 13.9179 2.59383 13.7643C2.52083 13.6107 2.50623 13.4393 2.55003 13.25L3.51367 9.11076L0.294239 6.32935C0.148233 6.19795 0.0571255 6.04815 0.020916 5.87995C-0.0152934 5.71175 -0.00448903 5.54764 0.0533293 5.38762C0.111732 5.22701 0.199335 5.0956 0.31614 4.9934C0.432944 4.8912 0.593551 4.82549 0.797959 4.79629L5.04673 4.42398L6.68929 0.525621C6.7623 0.350414 6.8756 0.219009 7.0292 0.131405C7.18279 0.0438018 7.3396 0 7.49963 0C7.66023 0 7.81704 0.0438018 7.97006 0.131405C8.12307 0.219009 8.23637 0.350414 8.30996 0.525621L9.95253 4.42398L14.2013 4.79629C14.4057 4.82549 14.5663 4.8912 14.6831 4.9934C14.7999 5.0956 14.8875 5.22701 14.9459 5.38762C15.0043 5.54822 15.0154 5.71262 14.9792 5.88082C14.943 6.04902 14.8516 6.19853 14.705 6.32935L11.4856 9.11076L12.4492 13.25C12.493 13.4398 12.4784 13.6115 12.4054 13.7651C12.3324 13.9187 12.2302 14.0463 12.0988 14.148C11.9674 14.2502 11.8141 14.3086 11.6389 14.3232C11.4637 14.3378 11.2958 14.294 11.1352 14.1918L7.49963 12.0017Z" fill="#FFCA03"/>
</svg>
